<?xml version="1.0" encoding="UTF-8"?>
<svg version="1.1" xmlns="http://www.w3.org/2000/svg" width="134" height="104">
<path d="M0 0 C44.22 0 88.44 0 134 0 C134 34.32 134 68.64 134 104 C89.78 104 45.56 104 0 104 C0 69.68 0 35.36 0 0 Z " fill="#2764EB" transform="translate(0,0)"/>
<path d="M0 0 C16.96388123 2.02594329 16.96388123 2.02594329 24.4375 3.5625 C25.67371094 3.81128906 26.90992188 4.06007813 28.18359375 4.31640625 C31 5 31 5 32 6 C32.09391296 7.90243762 32.11743658 9.80838459 32.11352539 11.71313477 C32.11344986 12.9343251 32.11337433 14.15551544 32.11329651 15.41371155 C32.10818911 16.75627686 32.10297311 18.09884175 32.09765625 19.44140625 C32.09579199 20.80761158 32.09436813 22.17381757 32.09336853 23.5400238 C32.08954394 27.14201695 32.07971417 30.74397 32.06866455 34.34594727 C32.05844916 38.01903745 32.05387064 41.69213409 32.04882812 45.36523438 C32.03809184 52.57684123 32.02101614 59.788415 32 67 C21.52158283 66.02313653 21.52158283 66.02313653 16.46484375 65.0625 C15.55412109 64.88976562 14.64339844 64.71703125 13.70507812 64.5390625 C12.79177734 64.36117187 11.87847656 64.18328125 10.9375 64 C9.98939453 63.82210937 9.04128906 63.64421875 8.06445312 63.4609375 C1.12842447 62.12842447 1.12842447 62.12842447 0 61 C-0.09391296 59.09756238 -0.11743658 57.19161541 -0.11352539 55.28686523 C-0.11344986 54.0656749 -0.11337433 52.84448456 -0.11329651 51.58628845 C-0.10818911 50.24372314 -0.10297311 48.90115825 -0.09765625 47.55859375 C-0.09579199 46.19238842 -0.09436813 44.82618243 -0.09336853 43.4599762 C-0.08954394 39.85798305 -0.07971417 36.25603 -0.06866455 32.65405273 C-0.05844916 28.98096255 -0.05387064 25.30786591 -0.04882812 21.63476562 C-0.03809184 14.42315877 -0.02101614 7.211585 0 0 Z " fill="#FEFEFE" transform="translate(31,18)"/>
<path d="M0 0 C1.98 0 3.96 0 6 0 C6 20.13 6 40.26 6 61 C0.84146526 63.06341389 -3.94809049 64.10745447 -9.375 65.125 C-10.29539062 65.30675781 -11.21578125 65.48851563 -12.1640625 65.67578125 C-13.51757812 65.93294922 -13.51757812 65.93294922 -14.8984375 66.1953125 C-15.70974121 66.35016113 -16.52104492 66.50500977 -17.35693359 66.66455078 C-20.5476383 67.06950444 -23.78370026 67 -27 67 C-27 46.87 -27 26.74 -27 6 C-23.01774657 4.40709863 -20.76460539 3.70116843 -16.6875 3.375 C-15.140625 3.25125 -13.59375 3.1275 -12 3 C-12 9.27 -12 15.54 -12 22 C-10.35 20.68 -8.7 19.36 -7 18 C-4.53199953 19.15173355 -2.95216435 20.04783565 -1 22 C-0.67 14.74 -0.34 7.48 0 0 Z " fill="#FBFCFE" transform="translate(95,18)"/>
<path d="M0 0 C4.875 0.875 4.875 0.875 6 2 C6.10940011 3.7688372 6.14908475 5.54203284 6.16113281 7.31420898 C6.17074036 8.44886093 6.1803479 9.58351288 6.19024658 10.75254822 C6.19449646 11.98791824 6.19874634 13.22328827 6.203125 14.49609375 C6.20882507 15.75511002 6.21452515 17.01412628 6.22039795 18.31129456 C6.22986507 20.98043438 6.23675317 23.64946127 6.24023438 26.31860352 C6.24572286 29.7432155 6.26975469 33.16743061 6.29820633 36.59191799 C6.32127892 39.85161348 6.32327879 43.11132799 6.328125 46.37109375 C6.3404718 47.60443954 6.3528186 48.83778534 6.36553955 50.10850525 C6.36253845 51.24630936 6.35953735 52.38411346 6.35644531 53.55639648 C6.36009094 54.56153793 6.36373657 55.56667938 6.36749268 56.60227966 C6.24622009 57.39352737 6.12494751 58.18477509 6 59 C2.55366118 61.29755922 1.28931609 61.23643976 -2.76171875 61.1953125 C-3.87998047 61.18886719 -4.99824219 61.18242188 -6.15039062 61.17578125 C-7.31763672 61.15902344 -8.48488281 61.14226562 -9.6875 61.125 C-10.86634766 61.11597656 -12.04519531 61.10695312 -13.25976562 61.09765625 C-16.17338026 61.07406423 -19.08658892 61.0411454 -22 61 C-17.90667151 58.27111434 -14.04908822 58.23109895 -9.2265625 57.66015625 C-5.76565918 56.95205375 -3.79814543 56.14067935 -1 54 C-0.24035441 51.5397912 -0.24035441 51.5397912 -0.34057617 48.70239258 C-0.32093307 47.62149857 -0.30128998 46.54060455 -0.28105164 45.42695618 C-0.28498428 44.26125595 -0.28891693 43.09555573 -0.29296875 41.89453125 C-0.27784744 40.70018967 -0.26272614 39.50584808 -0.24714661 38.27531433 C-0.20409996 34.4541867 -0.19541467 30.63384645 -0.1875 26.8125 C-0.16436909 24.22458819 -0.13900672 21.63669529 -0.11132812 19.04882812 C-0.04830792 12.69921143 -0.01350851 6.34990454 0 0 Z " fill="#E7EEFC" transform="translate(105,27)"/>
<path d="M0 0 C1.32 0 2.64 0 4 0 C4.33 17.49 4.66 34.98 5 53 C10.38529165 55.71696699 10.38529165 55.71696699 15.875 57.1875 C16.65617187 57.34605469 17.43734375 57.50460938 18.2421875 57.66796875 C18.82226562 57.77753906 19.40234375 57.88710937 20 58 C20 58.33 20 58.66 20 59 C16.52085059 59.02887814 13.04173169 59.04675687 9.5625 59.0625 C8.07266602 59.07506836 8.07266602 59.07506836 6.55273438 59.08789062 C5.60849609 59.09111328 4.66425781 59.09433594 3.69140625 59.09765625 C2.81685791 59.10289307 1.94230957 59.10812988 1.04125977 59.11352539 C-1 59 -1 59 -2 58 C-2.10410433 56.26163709 -2.13853527 54.51905223 -2.14526367 52.77758789 C-2.15164352 51.6629567 -2.15802338 50.5483255 -2.16459656 49.3999176 C-2.16570938 48.18642136 -2.1668222 46.97292511 -2.16796875 45.72265625 C-2.17129715 44.48583603 -2.17462555 43.24901581 -2.17805481 41.97471619 C-2.1831293 39.35269545 -2.18546298 36.73066822 -2.18530273 34.10864258 C-2.18522129 31.41293658 -2.19218657 28.71739981 -2.20581055 26.02172852 C-2.22405346 22.15115102 -2.22903586 18.28077233 -2.23046875 14.41015625 C-2.23765427 13.19868423 -2.24483978 11.98721222 -2.25224304 10.73902893 C-2.24916641 9.62124557 -2.24608978 8.50346222 -2.24291992 7.35180664 C-2.24434494 6.36443008 -2.24576996 5.37705353 -2.24723816 4.35975647 C-2 2 -2 2 0 0 Z " fill="#FAFBFE" transform="translate(22,28)"/>
</svg>
